<mxfile host="app.diagrams.net" agent="Mozilla/5.0 (Windows NT 10.0; Win64; x64) AppleWebKit/537.36 (KHTML, like Gecko) Chrome/137.0.0.0 Safari/537.36" version="27.1.6">
  <diagram name="PÃ¡gina-1" id="9t3lg38y7OAI8Bgi8oZV">
    <mxGraphModel grid="1" page="1" gridSize="10" guides="1" tooltips="1" connect="1" arrows="1" fold="1" pageScale="1" pageWidth="827" pageHeight="1169" math="0" shadow="0">
      <root>
        <mxCell id="0" />
        <mxCell id="1" parent="0" />
        <mxCell id="WmH0F2bCnfTTt5W3z8N3-113" value="Usuario" style="html=1;whiteSpace=wrap;" vertex="1" parent="1">
          <mxGeometry x="154" y="175" width="110" height="50" as="geometry" />
        </mxCell>
        <mxCell id="WmH0F2bCnfTTt5W3z8N3-114" value="Sistema&lt;span style=&quot;color: rgba(0, 0, 0, 0); font-family: monospace; font-size: 0px; text-align: start; text-wrap-mode: nowrap;&quot;&gt;%3CmxGraphModel%3E%3Croot%3E%3CmxCell%20id%3D%220%22%2F%3E%3CmxCell%20id%3D%221%22%20parent%3D%220%22%2F%3E%3CmxCell%20id%3D%222%22%20value%3D%22Usuario%22%20style%3D%22html%3D1%3BwhiteSpace%3Dwrap%3B%22%20vertex%3D%221%22%20parent%3D%221%22%3E%3CmxGeometry%20x%3D%2270%22%20y%3D%2240%22%20width%3D%22110%22%20height%3D%2250%22%20as%3D%22geometry%22%2F%3E%3C%2FmxCell%3E%3C%2Froot%3E%3C%2FmxGraphModel%3E&lt;/span&gt;" style="html=1;whiteSpace=wrap;" vertex="1" parent="1">
          <mxGeometry x="364" y="175" width="110" height="50" as="geometry" />
        </mxCell>
        <mxCell id="WmH0F2bCnfTTt5W3z8N3-115" value="Base de datos" style="html=1;whiteSpace=wrap;" vertex="1" parent="1">
          <mxGeometry x="564" y="175" width="110" height="50" as="geometry" />
        </mxCell>
        <mxCell id="WmH0F2bCnfTTt5W3z8N3-116" value="Usuario" style="html=1;whiteSpace=wrap;" vertex="1" parent="1">
          <mxGeometry x="166.5" y="1020" width="110" height="50" as="geometry" />
        </mxCell>
        <mxCell id="WmH0F2bCnfTTt5W3z8N3-117" value="Sistema&lt;span style=&quot;color: rgba(0, 0, 0, 0); font-family: monospace; font-size: 0px; text-align: start; text-wrap-mode: nowrap;&quot;&gt;%3CmxGraphModel%3E%3Croot%3E%3CmxCell%20id%3D%220%22%2F%3E%3CmxCell%20id%3D%221%22%20parent%3D%220%22%2F%3E%3CmxCell%20id%3D%222%22%20value%3D%22Usuario%22%20style%3D%22html%3D1%3BwhiteSpace%3Dwrap%3B%22%20vertex%3D%221%22%20parent%3D%221%22%3E%3CmxGeometry%20x%3D%2270%22%20y%3D%2240%22%20width%3D%22110%22%20height%3D%2250%22%20as%3D%22geometry%22%2F%3E%3C%2FmxCell%3E%3C%2Froot%3E%3C%2FmxGraphModel%3E&lt;/span&gt;" style="html=1;whiteSpace=wrap;" vertex="1" parent="1">
          <mxGeometry x="368" y="1020" width="110" height="50" as="geometry" />
        </mxCell>
        <mxCell id="WmH0F2bCnfTTt5W3z8N3-118" value="Base de datos" style="html=1;whiteSpace=wrap;" vertex="1" parent="1">
          <mxGeometry x="564" y="1020" width="110" height="50" as="geometry" />
        </mxCell>
        <mxCell id="WmH0F2bCnfTTt5W3z8N3-119" value="" style="endArrow=none;dashed=1;html=1;rounded=0;entryX=0.5;entryY=1;entryDx=0;entryDy=0;exitX=0.418;exitY=-0.012;exitDx=0;exitDy=0;exitPerimeter=0;" edge="1" parent="1" source="WmH0F2bCnfTTt5W3z8N3-137" target="WmH0F2bCnfTTt5W3z8N3-113">
          <mxGeometry width="50" height="50" relative="1" as="geometry">
            <mxPoint x="218.52999999999997" y="434.9699999999999" as="sourcePoint" />
            <mxPoint x="214" y="225" as="targetPoint" />
          </mxGeometry>
        </mxCell>
        <mxCell id="WmH0F2bCnfTTt5W3z8N3-120" value="" style="endArrow=none;dashed=1;html=1;rounded=0;entryX=0.5;entryY=1;entryDx=0;entryDy=0;exitX=0.5;exitY=0;exitDx=0;exitDy=0;" edge="1" parent="1" source="WmH0F2bCnfTTt5W3z8N3-127" target="WmH0F2bCnfTTt5W3z8N3-115">
          <mxGeometry width="50" height="50" relative="1" as="geometry">
            <mxPoint x="434" y="585" as="sourcePoint" />
            <mxPoint x="434" y="245" as="targetPoint" />
          </mxGeometry>
        </mxCell>
        <mxCell id="WmH0F2bCnfTTt5W3z8N3-121" value="" style="endArrow=none;dashed=1;html=1;rounded=0;entryX=0.5;entryY=1;entryDx=0;entryDy=0;exitX=0.5;exitY=0;exitDx=0;exitDy=0;" edge="1" parent="1" source="WmH0F2bCnfTTt5W3z8N3-123" target="WmH0F2bCnfTTt5W3z8N3-114">
          <mxGeometry width="50" height="50" relative="1" as="geometry">
            <mxPoint x="394" y="455" as="sourcePoint" />
            <mxPoint x="444" y="405" as="targetPoint" />
          </mxGeometry>
        </mxCell>
        <mxCell id="WmH0F2bCnfTTt5W3z8N3-122" value="" style="endArrow=none;dashed=1;html=1;rounded=0;entryX=0.5;entryY=1;entryDx=0;entryDy=0;" edge="1" parent="1" source="0BnjISvbnzjST_Ks_EHD-12" target="WmH0F2bCnfTTt5W3z8N3-123">
          <mxGeometry width="50" height="50" relative="1" as="geometry">
            <mxPoint x="419" y="850" as="sourcePoint" />
            <mxPoint x="419" y="365" as="targetPoint" />
          </mxGeometry>
        </mxCell>
        <mxCell id="WmH0F2bCnfTTt5W3z8N3-123" value="" style="html=1;points=[[0,0,0,0,5],[0,1,0,0,-5],[1,0,0,0,5],[1,1,0,0,-5]];perimeter=orthogonalPerimeter;outlineConnect=0;targetShapes=umlLifeline;portConstraint=eastwest;newEdgeStyle={&quot;curved&quot;:0,&quot;rounded&quot;:0};" vertex="1" parent="1">
          <mxGeometry x="414" y="405" width="10" height="30" as="geometry" />
        </mxCell>
        <mxCell id="WmH0F2bCnfTTt5W3z8N3-124" value="" style="endArrow=classic;html=1;rounded=0;entryX=0;entryY=0;entryDx=0;entryDy=5;entryPerimeter=0;" edge="1" parent="1" target="WmH0F2bCnfTTt5W3z8N3-123">
          <mxGeometry width="50" height="50" relative="1" as="geometry">
            <mxPoint x="214" y="410" as="sourcePoint" />
            <mxPoint x="324" y="385" as="targetPoint" />
          </mxGeometry>
        </mxCell>
        <mxCell id="WmH0F2bCnfTTt5W3z8N3-125" value="3. Diligenciar formulario" style="text;html=1;align=center;verticalAlign=middle;whiteSpace=wrap;rounded=0;" vertex="1" parent="1">
          <mxGeometry x="214" y="385" width="200" height="20" as="geometry" />
        </mxCell>
        <mxCell id="WmH0F2bCnfTTt5W3z8N3-126" value="" style="endArrow=none;dashed=1;html=1;rounded=0;entryX=0.5;entryY=1;entryDx=0;entryDy=0;exitX=0.5;exitY=0;exitDx=0;exitDy=0;" edge="1" parent="1" source="WmH0F2bCnfTTt5W3z8N3-118" target="WmH0F2bCnfTTt5W3z8N3-127">
          <mxGeometry width="50" height="50" relative="1" as="geometry">
            <mxPoint x="619" y="565" as="sourcePoint" />
            <mxPoint x="619" y="225" as="targetPoint" />
          </mxGeometry>
        </mxCell>
        <mxCell id="WmH0F2bCnfTTt5W3z8N3-127" value="" style="html=1;points=[[0,0,0,0,5],[0,1,0,0,-5],[1,0,0,0,5],[1,1,0,0,-5]];perimeter=orthogonalPerimeter;outlineConnect=0;targetShapes=umlLifeline;portConstraint=eastwest;newEdgeStyle={&quot;curved&quot;:0,&quot;rounded&quot;:0};" vertex="1" parent="1">
          <mxGeometry x="614" y="445" width="10" height="30" as="geometry" />
        </mxCell>
        <mxCell id="WmH0F2bCnfTTt5W3z8N3-128" value="" style="endArrow=classic;html=1;rounded=0;entryX=0;entryY=0;entryDx=0;entryDy=5;entryPerimeter=0;" edge="1" parent="1" target="WmH0F2bCnfTTt5W3z8N3-127">
          <mxGeometry width="50" height="50" relative="1" as="geometry">
            <mxPoint x="424" y="450" as="sourcePoint" />
            <mxPoint x="564" y="405" as="targetPoint" />
          </mxGeometry>
        </mxCell>
        <mxCell id="WmH0F2bCnfTTt5W3z8N3-129" value="4. Verificar si el usuario existe" style="text;html=1;align=center;verticalAlign=middle;whiteSpace=wrap;rounded=0;" vertex="1" parent="1">
          <mxGeometry x="424" y="425" width="170" height="20" as="geometry" />
        </mxCell>
        <mxCell id="WmH0F2bCnfTTt5W3z8N3-130" value="alt" style="shape=umlFrame;whiteSpace=wrap;html=1;pointerEvents=0;" vertex="1" parent="1">
          <mxGeometry x="184" y="485" width="450" height="265" as="geometry" />
        </mxCell>
        <mxCell id="WmH0F2bCnfTTt5W3z8N3-131" value="[Usuario existe]" style="text;html=1;align=center;verticalAlign=middle;whiteSpace=wrap;rounded=0;" vertex="1" parent="1">
          <mxGeometry x="366.5" y="485" width="107.5" height="30" as="geometry" />
        </mxCell>
        <mxCell id="WmH0F2bCnfTTt5W3z8N3-132" value="" style="endArrow=classic;html=1;rounded=0;fontSize=12;startSize=8;endSize=8;curved=1;entryX=1;entryY=0;entryDx=0;entryDy=5;entryPerimeter=0;" edge="1" parent="1" target="WmH0F2bCnfTTt5W3z8N3-133">
          <mxGeometry width="50" height="50" relative="1" as="geometry">
            <mxPoint x="614" y="540" as="sourcePoint" />
            <mxPoint x="594" y="525" as="targetPoint" />
          </mxGeometry>
        </mxCell>
        <mxCell id="WmH0F2bCnfTTt5W3z8N3-133" value="" style="html=1;points=[[0,0,0,0,5],[0,1,0,0,-5],[1,0,0,0,5],[1,1,0,0,-5]];perimeter=orthogonalPerimeter;outlineConnect=0;targetShapes=umlLifeline;portConstraint=eastwest;newEdgeStyle={&quot;curved&quot;:0,&quot;rounded&quot;:0};" vertex="1" parent="1">
          <mxGeometry x="414" y="535" width="10" height="30" as="geometry" />
        </mxCell>
        <mxCell id="WmH0F2bCnfTTt5W3z8N3-134" value="5. Usuario ya existe" style="text;html=1;align=center;verticalAlign=middle;whiteSpace=wrap;rounded=0;" vertex="1" parent="1">
          <mxGeometry x="434" y="515" width="170" height="20" as="geometry" />
        </mxCell>
        <mxCell id="WmH0F2bCnfTTt5W3z8N3-135" value="6. Notificar error: Usuario ya existe" style="text;html=1;align=center;verticalAlign=middle;whiteSpace=wrap;rounded=0;" vertex="1" parent="1">
          <mxGeometry x="214" y="540" width="195" height="20" as="geometry" />
        </mxCell>
        <mxCell id="WmH0F2bCnfTTt5W3z8N3-136" value="" style="endArrow=none;dashed=1;html=1;rounded=0;exitX=0.375;exitY=0;exitDx=0;exitDy=0;exitPerimeter=0;" edge="1" parent="1" source="WmH0F2bCnfTTt5W3z8N3-116" target="WmH0F2bCnfTTt5W3z8N3-137">
          <mxGeometry width="50" height="50" relative="1" as="geometry">
            <mxPoint x="210" y="844" as="sourcePoint" />
            <mxPoint x="209" y="625" as="targetPoint" />
          </mxGeometry>
        </mxCell>
        <mxCell id="WmH0F2bCnfTTt5W3z8N3-137" value="" style="html=1;points=[[0,0,0,0,5],[0,1,0,0,-5],[1,0,0,0,5],[1,1,0,0,-5]];perimeter=orthogonalPerimeter;outlineConnect=0;targetShapes=umlLifeline;portConstraint=eastwest;newEdgeStyle={&quot;curved&quot;:0,&quot;rounded&quot;:0};" vertex="1" parent="1">
          <mxGeometry x="204" y="565" width="10" height="30" as="geometry" />
        </mxCell>
        <mxCell id="WmH0F2bCnfTTt5W3z8N3-138" value="[No llena todos los campos]" style="text;html=1;align=center;verticalAlign=middle;whiteSpace=wrap;rounded=0;" vertex="1" parent="1">
          <mxGeometry x="355.25" y="610" width="127.5" height="30" as="geometry" />
        </mxCell>
        <mxCell id="WmH0F2bCnfTTt5W3z8N3-149" value="" style="html=1;points=[[0,0,0,0,5],[0,1,0,0,-5],[1,0,0,0,5],[1,1,0,0,-5]];perimeter=orthogonalPerimeter;outlineConnect=0;targetShapes=umlLifeline;portConstraint=eastwest;newEdgeStyle={&quot;curved&quot;:0,&quot;rounded&quot;:0};" vertex="1" parent="1">
          <mxGeometry x="204" y="965" width="10" height="30" as="geometry" />
        </mxCell>
        <mxCell id="WmH0F2bCnfTTt5W3z8N3-150" value="11. Notificar creaciÃ³n de cuenta exitosa" style="text;html=1;align=center;verticalAlign=middle;whiteSpace=wrap;rounded=0;" vertex="1" parent="1">
          <mxGeometry x="214" y="945" width="195" height="20" as="geometry" />
        </mxCell>
        <mxCell id="WmH0F2bCnfTTt5W3z8N3-157" value="" style="endArrow=open;endSize=12;dashed=1;html=1;rounded=0;entryX=1;entryY=0;entryDx=0;entryDy=5;entryPerimeter=0;" edge="1" parent="1" target="WmH0F2bCnfTTt5W3z8N3-137">
          <mxGeometry width="160" relative="1" as="geometry">
            <mxPoint x="414" y="570" as="sourcePoint" />
            <mxPoint x="464" y="585" as="targetPoint" />
          </mxGeometry>
        </mxCell>
        <mxCell id="WmH0F2bCnfTTt5W3z8N3-158" value="" style="endArrow=open;endSize=12;dashed=1;html=1;rounded=0;entryX=1;entryY=0;entryDx=0;entryDy=5;entryPerimeter=0;" edge="1" parent="1" target="WmH0F2bCnfTTt5W3z8N3-149">
          <mxGeometry width="160" relative="1" as="geometry">
            <mxPoint x="414" y="970" as="sourcePoint" />
            <mxPoint x="224" y="995" as="targetPoint" />
          </mxGeometry>
        </mxCell>
        <mxCell id="WmH0F2bCnfTTt5W3z8N3-160" value="" style="html=1;points=[[0,0,0,0,5],[0,1,0,0,-5],[1,0,0,0,5],[1,1,0,0,-5]];perimeter=orthogonalPerimeter;outlineConnect=0;targetShapes=umlLifeline;portConstraint=eastwest;newEdgeStyle={&quot;curved&quot;:0,&quot;rounded&quot;:0};" vertex="1" parent="1">
          <mxGeometry x="414" y="265" width="10" height="30" as="geometry" />
        </mxCell>
        <mxCell id="WmH0F2bCnfTTt5W3z8N3-161" value="" style="endArrow=classic;html=1;rounded=0;entryX=0;entryY=0;entryDx=0;entryDy=5;entryPerimeter=0;" edge="1" parent="1" target="WmH0F2bCnfTTt5W3z8N3-160">
          <mxGeometry width="50" height="50" relative="1" as="geometry">
            <mxPoint x="214" y="270" as="sourcePoint" />
            <mxPoint x="324" y="245" as="targetPoint" />
          </mxGeometry>
        </mxCell>
        <mxCell id="WmH0F2bCnfTTt5W3z8N3-162" value="1. Pulsa botÃ³n Registro" style="text;html=1;align=center;verticalAlign=middle;whiteSpace=wrap;rounded=0;" vertex="1" parent="1">
          <mxGeometry x="214" y="245" width="200" height="20" as="geometry" />
        </mxCell>
        <mxCell id="WmH0F2bCnfTTt5W3z8N3-163" value="" style="endArrow=classic;html=1;rounded=0;fontSize=12;startSize=8;endSize=8;curved=1;entryX=1;entryY=0;entryDx=0;entryDy=5;entryPerimeter=0;" edge="1" parent="1" target="WmH0F2bCnfTTt5W3z8N3-164">
          <mxGeometry width="50" height="50" relative="1" as="geometry">
            <mxPoint x="404" y="340" as="sourcePoint" />
            <mxPoint x="384" y="325" as="targetPoint" />
          </mxGeometry>
        </mxCell>
        <mxCell id="WmH0F2bCnfTTt5W3z8N3-164" value="" style="html=1;points=[[0,0,0,0,5],[0,1,0,0,-5],[1,0,0,0,5],[1,1,0,0,-5]];perimeter=orthogonalPerimeter;outlineConnect=0;targetShapes=umlLifeline;portConstraint=eastwest;newEdgeStyle={&quot;curved&quot;:0,&quot;rounded&quot;:0};" vertex="1" parent="1">
          <mxGeometry x="204" y="335" width="10" height="30" as="geometry" />
        </mxCell>
        <mxCell id="WmH0F2bCnfTTt5W3z8N3-165" value="2. Mostrar formulario" style="text;html=1;align=center;verticalAlign=middle;whiteSpace=wrap;rounded=0;" vertex="1" parent="1">
          <mxGeometry x="224" y="315" width="170" height="20" as="geometry" />
        </mxCell>
        <mxCell id="WmH0F2bCnfTTt5W3z8N3-166" value="" style="endArrow=none;dashed=1;html=1;rounded=0;" edge="1" parent="1">
          <mxGeometry width="50" height="50" relative="1" as="geometry">
            <mxPoint x="624" y="605" as="sourcePoint" />
            <mxPoint x="194" y="605" as="targetPoint" />
          </mxGeometry>
        </mxCell>
        <mxCell id="0BnjISvbnzjST_Ks_EHD-2" value="" style="html=1;points=[[0,0,0,0,5],[0,1,0,0,-5],[1,0,0,0,5],[1,1,0,0,-5]];perimeter=orthogonalPerimeter;outlineConnect=0;targetShapes=umlLifeline;portConstraint=eastwest;newEdgeStyle={&quot;curved&quot;:0,&quot;rounded&quot;:0};" vertex="1" parent="1">
          <mxGeometry x="415" y="660" width="10" height="30" as="geometry" />
        </mxCell>
        <mxCell id="0BnjISvbnzjST_Ks_EHD-4" value="8. Notificar error: Campos incompletos" style="text;html=1;align=center;verticalAlign=middle;whiteSpace=wrap;rounded=0;" vertex="1" parent="1">
          <mxGeometry x="215" y="665" width="195" height="20" as="geometry" />
        </mxCell>
        <mxCell id="0BnjISvbnzjST_Ks_EHD-5" value="" style="html=1;points=[[0,0,0,0,5],[0,1,0,0,-5],[1,0,0,0,5],[1,1,0,0,-5]];perimeter=orthogonalPerimeter;outlineConnect=0;targetShapes=umlLifeline;portConstraint=eastwest;newEdgeStyle={&quot;curved&quot;:0,&quot;rounded&quot;:0};" vertex="1" parent="1">
          <mxGeometry x="205" y="690" width="10" height="30" as="geometry" />
        </mxCell>
        <mxCell id="0BnjISvbnzjST_Ks_EHD-6" value="" style="endArrow=open;endSize=12;dashed=1;html=1;rounded=0;entryX=1;entryY=0;entryDx=0;entryDy=5;entryPerimeter=0;" edge="1" parent="1" target="0BnjISvbnzjST_Ks_EHD-5">
          <mxGeometry width="160" relative="1" as="geometry">
            <mxPoint x="415" y="695" as="sourcePoint" />
            <mxPoint x="465" y="710" as="targetPoint" />
          </mxGeometry>
        </mxCell>
        <mxCell id="0BnjISvbnzjST_Ks_EHD-7" value="" style="endArrow=classic;html=1;rounded=0;fontSize=12;startSize=8;endSize=8;entryX=1;entryY=0;entryDx=0;entryDy=5;entryPerimeter=0;edgeStyle=orthogonalEdgeStyle;" edge="1" parent="1">
          <mxGeometry width="50" height="50" relative="1" as="geometry">
            <mxPoint x="420" y="650" as="sourcePoint" />
            <mxPoint x="425" y="674.89" as="targetPoint" />
            <Array as="points">
              <mxPoint x="460" y="651" />
              <mxPoint x="460" y="675" />
              <mxPoint x="426" y="675" />
            </Array>
          </mxGeometry>
        </mxCell>
        <mxCell id="0BnjISvbnzjST_Ks_EHD-8" value="7. Verificar campos" style="text;html=1;align=center;verticalAlign=middle;whiteSpace=wrap;rounded=0;fontSize=10;" vertex="1" parent="1">
          <mxGeometry x="410" y="650" width="195" height="20" as="geometry" />
        </mxCell>
        <mxCell id="0BnjISvbnzjST_Ks_EHD-13" value="" style="endArrow=classic;html=1;rounded=0;" edge="1" parent="1" target="0BnjISvbnzjST_Ks_EHD-12">
          <mxGeometry width="50" height="50" relative="1" as="geometry">
            <mxPoint x="620" y="875" as="sourcePoint" />
            <mxPoint x="564" y="830" as="targetPoint" />
          </mxGeometry>
        </mxCell>
        <mxCell id="0BnjISvbnzjST_Ks_EHD-14" value="10. Confirmar creaciÃ³n cuenta" style="text;html=1;align=center;verticalAlign=middle;whiteSpace=wrap;rounded=0;" vertex="1" parent="1">
          <mxGeometry x="435" y="850" width="170" height="20" as="geometry" />
        </mxCell>
        <mxCell id="0BnjISvbnzjST_Ks_EHD-15" value="" style="endArrow=none;dashed=1;html=1;rounded=0;entryX=0.5;entryY=1;entryDx=0;entryDy=0;" edge="1" parent="1" source="WmH0F2bCnfTTt5W3z8N3-117" target="0BnjISvbnzjST_Ks_EHD-12">
          <mxGeometry width="50" height="50" relative="1" as="geometry">
            <mxPoint x="422" y="945" as="sourcePoint" />
            <mxPoint x="419" y="435" as="targetPoint" />
          </mxGeometry>
        </mxCell>
        <mxCell id="0BnjISvbnzjST_Ks_EHD-12" value="" style="html=1;points=[[0,0,0,0,5],[0,1,0,0,-5],[1,0,0,0,5],[1,1,0,0,-5]];perimeter=orthogonalPerimeter;outlineConnect=0;targetShapes=umlLifeline;portConstraint=eastwest;newEdgeStyle={&quot;curved&quot;:0,&quot;rounded&quot;:0};" vertex="1" parent="1">
          <mxGeometry x="415.25" y="870" width="10" height="30" as="geometry" />
        </mxCell>
        <mxCell id="0BnjISvbnzjST_Ks_EHD-16" value="" style="html=1;points=[[0,0,0,0,5],[0,1,0,0,-5],[1,0,0,0,5],[1,1,0,0,-5]];perimeter=orthogonalPerimeter;outlineConnect=0;targetShapes=umlLifeline;portConstraint=eastwest;newEdgeStyle={&quot;curved&quot;:0,&quot;rounded&quot;:0};" vertex="1" parent="1">
          <mxGeometry x="614" y="800" width="10" height="30" as="geometry" />
        </mxCell>
        <mxCell id="0BnjISvbnzjST_Ks_EHD-17" value="" style="endArrow=classic;html=1;rounded=0;entryX=0;entryY=0;entryDx=0;entryDy=5;entryPerimeter=0;" edge="1" parent="1" target="0BnjISvbnzjST_Ks_EHD-16">
          <mxGeometry width="50" height="50" relative="1" as="geometry">
            <mxPoint x="424" y="805" as="sourcePoint" />
            <mxPoint x="564" y="760" as="targetPoint" />
          </mxGeometry>
        </mxCell>
        <mxCell id="0BnjISvbnzjST_Ks_EHD-18" value="9. Guardar nuevo usuario" style="text;html=1;align=center;verticalAlign=middle;whiteSpace=wrap;rounded=0;" vertex="1" parent="1">
          <mxGeometry x="424" y="780" width="170" height="20" as="geometry" />
        </mxCell>
      </root>
    </mxGraphModel>
  </diagram>
</mxfile>
